<svg width="24" height="25" fill="none" xmlns="http://www.w3.org/2000/svg"><g clip-path="url(#clip0_1_4854)" fill="#000"><path d="M14.961 3.78c.68-.934 1.141-2.188 1.02-3.47-.996.055-2.21.722-2.913 1.656-.632.8-1.19 2.107-1.045 3.334 1.117.107 2.234-.613 2.938-1.52z"/><path d="M16.38 5.318c-1.821-.11-3.37 1.047-4.239 1.047-.87 0-2.202-.992-3.642-.965-1.875.028-3.614 1.101-4.566 2.809-1.957 3.415-.516 8.481 1.387 11.263.924 1.376 2.037 2.891 3.505 2.837 1.386-.055 1.93-.91 3.615-.91 1.684 0 2.174.91 3.641.883 1.522-.028 2.474-1.377 3.398-2.755 1.06-1.569 1.494-3.084 1.521-3.167-.027-.027-2.935-1.157-2.962-4.544-.027-2.836 2.283-4.185 2.392-4.268-1.305-1.954-3.343-2.175-4.05-2.23z"/></g><defs><clipPath id="clip0_1_4854"><path fill="#fff" transform="translate(0 .31)" d="M0 0h24v24H0z"/></clipPath></defs></svg>