<svg width="32" height="33" fill="none" xmlns="http://www.w3.org/2000/svg"><path d="M16 .81c13.333 0 16 2.667 16 16 0 13.334-2.667 16-16 16s-16-2.666-16-16c0-13.333 2.667-16 16-16z" fill="url(#paint0_linear_1_4870)"/><path fill-rule="evenodd" clip-rule="evenodd" d="M16 9.158c2.492 0 2.787.01 3.771.055.91.041 1.404.193 1.733.32a2.9 2.9 0 011.074.699c.326.327.529.637.698 1.073.128.33.28.823.32 1.733.046.984.055 1.28.055 3.772s-.01 2.787-.054 3.771c-.042.91-.194 1.404-.321 1.733-.17.436-.372.747-.698 1.074a2.887 2.887 0 01-1.074.698c-.329.127-.823.28-1.733.32-.984.046-1.279.055-3.771.055s-2.788-.01-3.772-.054c-.91-.042-1.404-.194-1.733-.321a2.895 2.895 0 01-1.073-.698 2.887 2.887 0 01-.698-1.074c-.128-.329-.28-.823-.321-1.733-.045-.984-.055-1.279-.055-3.771s.01-2.787.055-3.772c.041-.91.193-1.404.32-1.733a2.91 2.91 0 01.699-1.073 2.887 2.887 0 011.073-.698c.33-.128.823-.28 1.733-.321.985-.045 1.28-.055 3.772-.055zm0-1.681c-2.535 0-2.853.01-3.848.056-.994.045-1.672.203-2.266.434a4.572 4.572 0 00-1.653 1.076 4.572 4.572 0 00-1.076 1.653c-.231.594-.389 1.272-.434 2.265-.046.996-.056 1.314-.056 3.849s.01 2.852.056 3.848c.045.993.203 1.671.434 2.265a4.572 4.572 0 001.076 1.654c.52.518 1.04.837 1.654 1.076.593.23 1.272.389 2.265.434.996.046 1.313.056 3.848.056s2.853-.01 3.848-.056c.994-.045 1.672-.203 2.266-.434a4.571 4.571 0 001.653-1.076c.519-.52.838-1.04 1.076-1.654.231-.593.39-1.272.434-2.265.046-.996.057-1.313.057-3.848s-.011-2.853-.057-3.848c-.045-.994-.203-1.672-.434-2.266a4.57 4.57 0 00-1.076-1.653 4.573 4.573 0 00-1.653-1.077c-.594-.23-1.273-.388-2.266-.433-.995-.046-1.313-.056-3.848-.056zm0 4.54a4.792 4.792 0 100 9.585 4.792 4.792 0 000-9.585zm0 7.904a3.11 3.11 0 110-6.222 3.11 3.11 0 010 6.222zm6.102-8.093a1.12 1.12 0 11-2.24 0 1.12 1.12 0 012.24 0z" fill="#fff"/><defs><linearGradient id="paint0_linear_1_4870" x1="28.54" y1="4.581" x2="3.363" y2="29.134" gradientUnits="userSpaceOnUse"><stop stop-color="#BA00B2"/><stop offset=".5" stop-color="#F40000"/><stop offset="1" stop-color="#FFA800"/></linearGradient></defs></svg>