<svg width="25" height="25" fill="none" xmlns="http://www.w3.org/2000/svg"><g clip-path="url(#clip0_1_4860)"><path d="M3.027.71c-.28.28-.467.747-.467 1.307V22.64c0 .56.187 1.027.467 1.306l.093.094 11.57-11.57L3.027.71z" fill="url(#paint0_linear_1_4860)"/><path d="M18.516 16.294l-3.825-3.826 3.825-3.92 4.573 2.614c1.306.746 1.306 1.959 0 2.705l-4.573 2.427z" fill="url(#paint1_linear_1_4860)"/><path d="M18.516 16.294l-3.825-3.825L3.027 23.946c.466.467 1.12.467 1.96.093l13.53-7.745z" fill="url(#paint2_linear_1_4860)"/><path d="M18.516 8.549L4.893.617C4.146.151 3.4.244 3.027.711L14.69 12.468l3.826-3.92z" fill="url(#paint3_linear_1_4860)"/></g><defs><linearGradient id="paint0_linear_1_4860" x1="13.596" y1="1.802" x2="-2.064" y2="17.462" gradientUnits="userSpaceOnUse"><stop stop-color="#00A0FF"/><stop offset=".007" stop-color="#00A1FF"/><stop offset=".26" stop-color="#00BEFF"/><stop offset=".512" stop-color="#00D2FF"/><stop offset=".76" stop-color="#00DFFF"/><stop offset="1" stop-color="#00E3FF"/></linearGradient><linearGradient id="paint1_linear_1_4860" x1="24.826" y1="12.338" x2="2.247" y2="12.338" gradientUnits="userSpaceOnUse"><stop stop-color="#FFE000"/><stop offset=".409" stop-color="#FFBD00"/><stop offset=".775" stop-color="orange"/><stop offset="1" stop-color="#FF9C00"/></linearGradient><linearGradient id="paint2_linear_1_4860" x1="16.421" y1="14.48" x2="-4.815" y2="35.716" gradientUnits="userSpaceOnUse"><stop stop-color="#FF3A44"/><stop offset="1" stop-color="#C31162"/></linearGradient><linearGradient id="paint3_linear_1_4860" x1=".064" y1="-6.161" x2="9.547" y2="3.322" gradientUnits="userSpaceOnUse"><stop stop-color="#32A071"/><stop offset=".069" stop-color="#2DA771"/><stop offset=".476" stop-color="#15CF74"/><stop offset=".801" stop-color="#06E775"/><stop offset="1" stop-color="#00F076"/></linearGradient><clipPath id="clip0_1_4860"><path fill="#fff" transform="translate(.56 .31)" d="M0 0h24v24H0z"/></clipPath></defs></svg>