<svg width="32" height="33" fill="none" xmlns="http://www.w3.org/2000/svg"><path d="M16 .81c13.333 0 16 2.667 16 16 0 13.334-2.667 16-16 16s-16-2.666-16-16c0-13.333 2.667-16 16-16z" fill="url(#paint0_linear_1_4874)"/><path d="M7.861 16.676c4.664-2.032 7.775-3.372 9.331-4.02 4.443-1.848 5.367-2.169 5.968-2.18.133-.002.429.031.62.187a.674.674 0 01.228.433c.021.125.048.408.027.63-.24 2.53-1.283 8.67-1.813 11.503-.224 1.2-.666 1.601-1.093 1.64-.93.086-1.635-.613-2.535-1.203-1.408-.924-2.204-1.498-3.57-2.399-1.58-1.04-.556-1.613.344-2.548.236-.245 4.33-3.969 4.409-4.306.01-.043.019-.2-.075-.283-.093-.083-.231-.055-.33-.032-.142.032-2.392 1.519-6.75 4.46-.638.439-1.217.653-1.735.641-.571-.012-1.67-.323-2.487-.588-1.002-.326-1.798-.498-1.73-1.051.037-.288.434-.583 1.191-.884z" fill="#fff"/><defs><linearGradient id="paint0_linear_1_4874" x1="16" y1=".811" x2="16" y2="32.573" gradientUnits="userSpaceOnUse"><stop stop-color="#2AABEE"/><stop offset="1" stop-color="#229ED9"/></linearGradient></defs></svg>