<svg width="20" height="21" fill="none" xmlns="http://www.w3.org/2000/svg"><path d="M5.95 2.02C8.518 2.02 10 4.172 10 4.172s1.485-2.152 4.05-2.152c2.655 0 4.95 2.07 4.95 4.95 0 4.23-6.44 8.67-8.635 10.61a.554.554 0 01-.73 0C7.44 15.64 1 11.2 1 6.97c0-2.88 2.295-4.95 4.95-4.95z" fill="#fff" fill-opacity=".8"/><path d="M1 6.885A4.863 4.863 0 015.865 2.02c2.122 0 3.494 1.359 4.135 2.187.64-.828 2.013-2.187 4.135-2.187A4.862 4.862 0 0119 6.885c0 1.165-.467 2.321-1.147 3.4-.681 1.083-1.601 2.125-2.563 3.073-1.333 1.313-2.814 2.5-3.877 3.353-.451.362-.827.663-1.084.888a.5.5 0 01-.658 0c-.257-.225-.633-.526-1.084-.888-1.063-.852-2.544-2.04-3.877-3.353-.962-.948-1.882-1.99-2.563-3.073C1.467 9.206 1 8.05 1 6.885zM5.865 3.02A3.863 3.863 0 002 6.885c0 .902.366 1.871.993 2.867.625.992 1.485 1.974 2.419 2.893 1.298 1.28 2.672 2.38 3.722 3.221.323.26.616.494.866.701.25-.207.543-.442.866-.7 1.05-.842 2.424-1.943 3.722-3.222.934-.919 1.794-1.9 2.42-2.893.627-.996.992-1.965.992-2.867a3.862 3.862 0 00-3.865-3.865c-2.094 0-3.317 1.702-3.632 2.21a.593.593 0 01-1.006 0c-.315-.508-1.538-2.21-3.632-2.21z" fill="#15151A"/></svg>